<?xml version="1.0" encoding="utf-8"?>
<!-- Generator: Adobe Illustrator 24.2.1, SVG Export Plug-In . SVG Version: 6.00 Build 0)  -->
<svg version="1.1" id="图层_1" xmlns="http://www.w3.org/2000/svg" xmlns:xlink="http://www.w3.org/1999/xlink" x="0px" y="0px"
	 viewBox="0 0 64 64"  xml:space="preserve">
<style type="text/css">
	.st0{fill:#FFFFFF;}
	.st1{fill:#0D5493;}
	.st2{fill:none;}
</style>
<rect x="5" y="12" class="st0" width="55" height="38"/>
<path class="st1" d="M0,53.77c0-14.29,0-28.59,0-42.88C2.63,2.9,8.21-0.21,16.5,0.04C34.87,0,38.97,0,49.61,0.01
	C56.85-0.27,64.11,5.64,64,14.11c-0.16,11.97,0.04,23.95-0.06,35.92C63.86,58.6,58.55,63.98,50,64c-15.86,0.1-17,0-33.57,0
	C8.42,63.99,2.94,61.25,0,53.77z M23.19,20.84c1.58,2.86,2.84,5.12,4.08,7.39c3.06,5.61,6.07,11.25,9.2,16.82
	c2.01,3.58,5.73,4.31,7.55,1.31c4.83-7.97,9.51-16.05,13.91-24.27c1.79-3.34-0.22-6.03-4.09-6.13c-3.89-0.1-7.78,0-11.67-0.04
	c-2.23-0.02-3.78,1.01-4.89,2.87c-0.8,1.35-1.64,2.68-2.5,4c-1.69,2.58-1.32,4.85,1.04,7.16c1.5-2.47,2.91-4.78,4.31-7.1
	c0.6-0.99,1.14-2.26,2.4-2.31c3.49-0.13,6.99-0.05,11.13-0.05c-4.46,7.78-8.57,14.96-12.95,22.61c-1.05-1.84-1.79-3.09-2.49-4.36
	c-3.63-6.61-7.18-13.27-10.9-19.84c-2.12-3.74-5.64-4.2-7.68-0.82c-4.71,7.8-9.21,15.74-13.56,23.76c-1.79,3.31,0.11,6.11,3.88,6.28
	c2.2,0.1,3.22-0.02,5.4-0.02c7.18,0,11.2-1.48,13.85-6.99c1.38-2.88,1.09-4.79-1.23-6.98c-1.6,2.6-3.07,5.01-4.56,7.4
	c-0.54,0.88-0.97,2.06-2.16,2.09c-3.49,0.09-6.98,0.03-11.02,0.03C14.66,35.89,18.73,28.71,23.19,20.84z"/>
<path class="st2" d="M65,0c0,21.33,0,42.67,0,64"/>
<path class="st2" d="M1,53.54c2.87,7.3,8.21,10.22,16.02,9.98c10.86-0.34,21.73-0.07,32.6-0.09c8.34-0.02,13.65-5.17,13.73-13.53
	c0.1-11.69-0.09-23.37,0.06-35.06C63.52,6.57,56.44,0.8,49.38,1.07C39,1,30,1,17.09,1.1C9.01,0.86,3.56,3.9,1,11.69"/>
<path class="st2" d="M37-5"/>
</svg>
